<svg width="24" height="24" viewBox="0 0 24 24" fill="none" xmlns="http://www.w3.org/2000/svg">
<path d="M11.9997 0C9.50085 0 7.50193 1.53858 7.50193 3.42857V6H3.00417C2.49065 5.99786 2.05837 6.32892 2.00463 6.76715L0.00555446 23.0529C-0.0244317 23.295 0.0680247 23.5371 0.257937 23.7182C0.4491 23.8993 0.720219 24.0011 1.00508 24H22.9949C23.2798 24.0011 23.5509 23.8993 23.7421 23.7182C23.932 23.5371 24.0244 23.295 23.9944 23.0529L21.9954 6.76715C21.9416 6.32892 21.5094 5.99786 20.9958 6H16.4981V3.42857C16.4981 1.53858 14.499 0 12.0003 0H11.9997ZM9.50085 3.42857C9.50085 2.48143 10.6203 1.71429 11.9997 1.71429C13.3791 1.71429 14.4985 2.48143 14.4985 3.42857V6H9.50085V3.42857ZM20.096 7.71428L21.8851 22.2857H2.11444L3.90363 7.71428H7.50196V9.42857C7.50196 9.90215 7.94924 10.2857 8.5015 10.2857C9.05376 10.2857 9.50104 9.90215 9.50104 9.42857V7.71428H14.4987V9.42857C14.4987 9.90215 14.946 10.2857 15.4983 10.2857C16.0505 10.2857 16.4978 9.90215 16.4978 9.42857V7.71428H20.096Z" fill="white"/>
</svg>
