<svg width="232" height="59" viewBox="0 0 232 59" fill="none" xmlns="http://www.w3.org/2000/svg">
<g clip-path="url(#clip0_221_15)">
<path d="M16.8798 0L0 9.74661V29.2398L16.8798 19.4932L33.7637 9.74661L16.8798 0Z" fill="#83C6E1"/>
<path d="M16.8798 38.9865V19.4933L0 29.2399V48.7331L16.8798 58.4797L33.7637 48.7331V29.2399L16.8798 38.9865Z" fill="#438FD5"/>
<path d="M33.7638 9.74658L16.8799 19.4932L33.7638 29.2398V48.733L50.6436 38.9864V19.4932L33.7638 9.74658Z" fill="#F4220B"/>
<path d="M74.7393 38.2008V20.4195H80.3052V36.1828H87.2482V20.4071H92.8141V40.9424H88.2241L87.2482 39.2883L84.3536 40.9424H79.4534L74.7393 38.2008Z" fill="white"/>
<path d="M116.988 22.9254V40.7067H111.422V24.9558H104.48V40.7191H98.9136V20.2045H103.504L104.48 21.8585L107.374 20.2045H112.291L116.988 22.9254Z" fill="white"/>
<path d="M122.881 16.6276V11.0616H128.852V16.6276H122.881ZM128.649 20.4071V40.7191H123.083V20.4071H128.649Z" fill="white"/>
<path d="M150.831 30.7244V37.9981L146.117 40.7191H134.741V35.9802H145.265V32.8374H139.455L134.741 30.1165V23.1281L139.455 20.4071H150.425V25.1584H140.307V28.0034H146.117L150.831 30.7244Z" fill="white"/>
<path d="M155.296 25.1585V20.4071H159.018V16.9956L164.584 13.7826V20.3989H169.054V25.1502H164.601V35.9802H169.071V40.7315H163.749L159.035 38.0106V25.1585H155.296Z" fill="white"/>
<path d="M192.431 38.2008L187.733 40.9424H179.049L174.335 38.2214V22.9254L179.049 20.2045H187.733L192.447 22.9254L192.431 38.2008ZM179.917 24.9682V36.1828H186.865V24.9558L179.917 24.9682Z" fill="white"/>
<path d="M211.076 25.1584H204.087V40.7191H198.521V20.4071H203.112L204.087 22.0612L206.982 20.4071H211.084L211.076 25.1584Z" fill="white"/>
<path d="M231.979 35.9802V40.7315H219.851L215.137 38.0105V22.9254L219.851 20.2045H227.294L231.979 22.9254V32.6348H220.703V35.9802H231.979ZM220.686 24.9682V28.4624H226.413V24.9682H220.686Z" fill="white"/>
</g>
<defs>
<clipPath id="clip0_221_15">
<rect width="232" height="58.4797" fill="white"/>
</clipPath>
</defs>
</svg>
