<svg width="20" height="20" viewBox="0 0 20 20" fill="none" xmlns="http://www.w3.org/2000/svg">
    <path d="M19.6517 18.0284L13.6236 11.9993C14.5508 10.782 15.0725 9.21688 15.0725 7.53544C15.0725 3.36176 11.7106 0 7.53681 0C3.36299 0 0 3.36287 0 7.53655C0 11.7102 3.36187 15.072 7.53569 15.072C9.21719 15.072 10.7237 14.5503 11.9997 13.6232L18.029 19.6522C18.2605 19.8837 18.5507 20 18.8409 20C19.1311 20 19.4202 19.8837 19.6529 19.6522C20.1159 19.1881 20.1159 18.4925 19.6518 18.0284L19.6517 18.0284ZM7.53681 12.7537C4.63795 12.7537 2.31953 10.4353 2.31953 7.53655C2.31953 4.63779 4.63795 2.31945 7.53681 2.31945C10.4357 2.31945 12.7541 4.63779 12.7541 7.53655C12.7541 10.4342 10.4346 12.7537 7.53681 12.7537Z" fill="black"/>
</svg>
